<svg width="29" height="45" viewBox="0 0 29 45" fill="none" xmlns="http://www.w3.org/2000/svg">
<path d="M18.3672 12.465C17.6912 14.259 16.4042 15.208 14.6622 15.208C12.2052 15.208 10.6322 13.388 10.6322 10.476C10.6322 7.551 12.2052 5.705 14.6622 5.705C16.4692 5.705 17.7952 6.68 18.4582 8.76L17.4052 9.007C16.9242 7.395 15.9882 6.719 14.6622 6.719C12.8422 6.719 11.7892 8.071 11.7892 10.476C11.7892 12.855 12.8422 14.181 14.6622 14.181C15.9362 14.181 16.8462 13.57 17.3662 12.114L18.3672 12.465Z" fill="white"/>
<circle cx="14.5" cy="10.5" r="10" stroke="white"/>
<path d="M0.641035 42V41.116L3.85204 37.346C4.64504 36.423 5.15204 35.63 5.15204 34.954C5.15204 34.187 4.59304 33.641 3.60504 33.641C2.43504 33.641 1.92804 34.239 1.57704 34.954L0.628035 34.668C1.17404 33.238 2.26604 32.705 3.64404 32.705C5.23004 32.705 6.21804 33.602 6.21804 34.876C6.21804 35.669 5.86704 36.592 4.93104 37.684L2.05804 41.051H6.67304V42H0.641035ZM11.0579 42.208C8.92589 42.208 7.58689 40.388 7.58689 37.476C7.58689 34.551 8.92589 32.705 11.0579 32.705C13.1639 32.705 14.4899 34.551 14.4899 37.476C14.4899 40.388 13.1639 42.208 11.0579 42.208ZM11.0579 41.22C12.4879 41.22 13.3849 39.79 13.3849 37.476C13.3849 35.149 12.4879 33.68 11.0579 33.68C9.60189 33.68 8.70489 35.149 8.70489 37.476C8.70489 39.79 9.60189 41.22 11.0579 41.22ZM15.7485 42V41.116L18.9595 37.346C19.7525 36.423 20.2595 35.63 20.2595 34.954C20.2595 34.187 19.7005 33.641 18.7125 33.641C17.5425 33.641 17.0355 34.239 16.6845 34.954L15.7355 34.668C16.2815 33.238 17.3735 32.705 18.7515 32.705C20.3375 32.705 21.3255 33.602 21.3255 34.876C21.3255 35.669 20.9745 36.592 20.0385 37.684L17.1655 41.051H21.7805V42H15.7485ZM22.8476 41.805C24.9926 41.402 27.2676 40.453 27.2676 38.568C27.2676 37.138 25.4346 36.54 23.5626 37.411L22.9256 36.748V32.9H27.9826V33.849H24.0436V36.137L24.1086 36.215C26.1236 35.604 28.3726 36.449 28.3726 38.464C28.3726 41.129 25.7986 42.273 23.0946 42.754L22.8476 41.805Z" fill="white"/>
</svg>
