<svg width="112" height="68" viewBox="0 0 112 68" fill="none" xmlns="http://www.w3.org/2000/svg">
<path d="M25.418 23.4141H31.3528V40.7719H41.691V45.7496H25.418V23.4141Z" fill="#E8F5FF"/>
<path d="M11.55 46.4297C8.85044 46.4297 6.38157 45.8847 4.84999 44.9487C3.31842 44.0128 2.12719 42.6726 1.27631 40.9284C0.425438 39.1841 0 37.142 0 34.802C0 32.4409 0.489254 30.3562 1.46776 28.5481C2.44627 26.7187 3.81831 25.3041 5.58388 24.3044C7.34944 23.3046 9.35964 22.8047 11.6145 22.8047C13.5715 22.8047 15.2839 23.1557 16.7516 23.8576C18.2407 24.5383 19.4106 25.4849 20.2615 26.6974C21.1336 27.8887 21.6335 29.2501 21.7612 30.7817H15.6349C15.4859 29.867 15.0499 29.1331 14.3266 28.58C13.6247 28.0057 12.7312 27.7185 11.6464 27.7185C10.5828 27.7185 9.63617 27.9844 8.80657 28.5162C7.97696 29.048 7.32817 29.8351 6.86019 30.8774C6.39221 31.8984 6.15822 33.1428 6.15822 34.6106C6.15822 36.0571 6.37094 37.3015 6.79637 38.3438C7.24308 39.3861 7.88124 40.1838 8.71084 40.7369C9.54045 41.2687 10.519 41.5346 11.6464 41.5346C12.5185 41.5346 13.3056 41.3538 14.0076 40.9922C14.7095 40.6305 15.252 40.1413 15.6349 39.5244C16.0177 38.8862 16.2092 38.1417 16.2092 37.2909V36.1741L17.5493 37.7057H11.2316V33.3981H21.8569C21.8569 33.3981 21.8569 33.7066 21.8569 37.7057C21.8569 41.7047 20.125 43.9797 18.2464 45.0464C16.3677 46.1132 14.6143 46.4297 11.55 46.4297Z" fill="#E8F5FF"/>
<path d="M78.0508 23.8516H84.2931L86.9366 36.5876C87.255 38.1876 87.4886 39.4889 87.6372 40.4916C87.7009 39.8729 87.7752 39.3716 87.8602 38.9876C87.9451 38.4969 88.0194 38.0916 88.0831 37.7716C88.168 37.4516 88.253 37.0569 88.3379 36.5876L91.0769 23.8516H98.7524L101.268 36.5876C101.523 37.8462 101.746 39.1476 101.937 40.4916C102.15 38.9982 102.373 37.6862 102.606 36.5556L105.218 23.8516H111.301L105.855 46.2516H98.0836L95.3128 32.1716C95.2915 31.9796 95.2597 31.7876 95.2172 31.5956C95.1535 31.2116 95.0898 30.8062 95.0261 30.3796C94.9624 29.9529 94.8987 29.4729 94.835 28.9396C94.7289 29.7076 94.6015 30.4329 94.4528 31.1156C94.4104 31.3716 94.3361 31.7236 94.2299 32.1716L90.9495 46.2516H83.4014L78.0508 23.8516Z" fill="#E8F5FF"/>
<g filter="url(#filter0_f_3969_39553)">
<path d="M68.7707 39.4823C60.7112 51.8928 49.9467 59.2059 45.6999 56.448C41.4532 53.6901 43.7557 40.8818 51.8152 28.4713C59.8747 16.0607 70.6392 8.74761 74.8859 11.5055C79.1327 14.2634 76.8302 27.0717 68.7707 39.4823Z" fill="#E8F5FF"/>
</g>
<g filter="url(#filter1_f_3969_39553)">
<path d="M68.7707 39.4823C60.7112 51.8928 49.9467 59.2059 45.6999 56.448C41.4532 53.6901 43.7557 40.8818 51.8152 28.4713C59.8747 16.0607 70.6392 8.74761 74.8859 11.5055C79.1327 14.2634 76.8302 27.0717 68.7707 39.4823Z" fill="#E8F5FF"/>
</g>
<path d="M68.7707 39.4823C60.7112 51.8928 49.9467 59.2059 45.6999 56.448C41.4532 53.6901 43.7557 40.8818 51.8152 28.4713C59.8747 16.0607 70.6392 8.74761 74.8859 11.5055C79.1327 14.2634 76.8302 27.0717 68.7707 39.4823Z" fill="#E8F5FF"/>
<defs>
<filter id="filter0_f_3969_39553" x="32.8274" y="0.145782" width="54.9311" height="67.6616" filterUnits="userSpaceOnUse" color-interpolation-filters="sRGB">
<feFlood flood-opacity="0" result="BackgroundImageFix"/>
<feBlend mode="normal" in="SourceGraphic" in2="BackgroundImageFix" result="shape"/>
<feGaussianBlur stdDeviation="5.39" result="effect1_foregroundBlur_3969_39553"/>
</filter>
<filter id="filter1_f_3969_39553" x="40.1774" y="7.49578" width="40.2311" height="52.9616" filterUnits="userSpaceOnUse" color-interpolation-filters="sRGB">
<feFlood flood-opacity="0" result="BackgroundImageFix"/>
<feBlend mode="normal" in="SourceGraphic" in2="BackgroundImageFix" result="shape"/>
<feGaussianBlur stdDeviation="1.715" result="effect1_foregroundBlur_3969_39553"/>
</filter>
</defs>
</svg>
