<svg width="1097" height="188" viewBox="0 0 1097 188" fill="none" xmlns="http://www.w3.org/2000/svg">
<path d="M799.937 19.4673L799.937 121.945C799.937 137.018 812.157 149.237 827.229 149.237C837.566 149.237 847.016 143.397 851.639 134.151L883.989 69.449C902.679 32.0701 955.75 31.7781 974.977 68.5728L975.426 69.449L1007.78 134.151C1012.25 143.108 1021.26 148.87 1031.22 149.221L1032.19 149.237C1047.26 149.237 1059.48 137.018 1059.48 121.945L1059.48 19.4673L1059.5 18.5132C1060 8.71801 1068.1 0.928713 1078.02 0.928697C1087.93 0.928696 1096.03 8.718 1096.53 18.5132L1096.55 19.4673L1096.55 121.945C1096.55 157.495 1067.74 186.314 1032.19 186.314L1031.05 186.304C1007.11 185.881 985.346 172.199 974.613 150.733L942.263 86.0306L942.013 85.5526C936.63 75.6872 922.244 75.8466 917.152 86.0306L884.802 150.733C873.899 172.54 851.61 186.314 827.229 186.314C791.68 186.314 762.86 157.495 762.86 121.945L762.86 19.4673C762.86 9.22873 771.16 0.928724 781.399 0.928723C791.637 0.928722 799.937 9.22872 799.937 19.4673Z" fill="white"/>
<path d="M304.959 121.43V19.4683C304.959 9.22969 313.259 0.929688 323.498 0.929688C333.736 0.929688 342.036 9.22969 342.036 19.4683V121.43C342.036 136.788 354.486 149.238 369.844 149.238H453.268C463.506 149.238 471.806 157.538 471.806 167.777C471.806 178.015 463.506 186.315 453.268 186.315H369.844C334.009 186.315 304.959 157.265 304.959 121.43Z" fill="white"/>
<path d="M605.283 148.309C634.6 148.309 658.394 143.723 674.204 134.597C688.547 126.317 697.049 114.071 697.049 93.6198C697.049 73.1685 688.547 60.9228 674.204 52.643C658.394 43.5169 634.6 38.931 605.283 38.931C575.967 38.931 552.173 43.5169 536.363 52.643C522.02 60.9228 513.518 73.1685 513.518 93.6198C513.518 114.071 522.02 126.317 536.363 134.597C552.173 143.723 575.967 148.309 605.283 148.309ZM605.283 187.24C573.17 187.24 541.347 182.426 516.899 168.314C490.985 153.355 474.587 128.522 474.587 93.6198C474.587 58.7179 490.985 33.8851 516.899 18.926C541.347 4.81364 573.17 -2.04704e-06 605.283 -1.9067e-06C637.397 -1.4382e-06 669.22 4.81365 693.668 18.926C719.582 33.8851 735.98 58.7179 735.98 93.6198C735.98 128.522 719.582 153.355 693.668 168.314C669.22 182.426 637.397 187.24 605.283 187.24Z" fill="white"/>
<path d="M130.693 -2.22355e-06L241.925 -6.00826e-07C252.675 7.19679e-06 261.39 8.71501 261.39 19.4655C261.39 29.8802 253.211 38.3846 242.926 38.9057L241.925 38.931L130.693 38.931L127.962 38.9437C99.8974 39.2213 77.0891 43.8021 61.7731 52.643C47.4296 60.9228 38.9275 73.1685 38.9275 93.6198C38.9275 114.071 47.4296 126.317 61.7731 134.597C77.5831 143.723 101.377 148.309 130.693 148.309L226.567 148.309C231.238 148.309 235.718 146.454 239.021 143.151C245.684 136.488 245.892 125.814 239.646 118.9L239.021 118.243C235.718 114.94 231.238 113.085 226.567 113.085L167.771 113.085C157.02 113.085 148.305 104.37 148.305 93.6198C148.305 82.8693 157.02 74.1543 167.771 74.1543L226.567 74.1543C241.563 74.1543 255.945 80.1121 266.548 90.7159L267.568 91.7605C288.624 113.912 288.284 148.942 266.548 170.678C255.945 181.282 241.563 187.24 226.567 187.24L130.693 187.24C98.5795 187.24 66.7571 182.426 42.3093 168.314C16.395 153.355 -0.00349584 128.522 -0.00349127 93.6198C-0.00348669 58.7179 16.395 33.8851 42.3094 18.926C65.9933 5.25455 96.5983 0.310145 127.685 0.014481L130.693 -2.22355e-06Z" fill="white"/>
</svg>
