<svg width="848" height="177" viewBox="0 0 848 177" fill="none" xmlns="http://www.w3.org/2000/svg">
<path d="M111.378 82.6208C103.608 82.6208 98.3951 84.0624 94.903 85.9708C91.5267 87.8161 89.254 90.3662 87.6938 93.6104C86.4347 96.2288 85.708 99.4681 85.7079 103.32C85.7079 109.479 88.2941 115.209 92.3996 118.836C96.4486 122.413 101.499 125.181 112.056 126.163C143.18 127.688 168.849 104.659 168.849 73.9207C168.849 45.9188 144.661 19.6588 104.894 19.6587C53.1377 19.6587 21.4499 59.9538 19.7165 105.312L19.6574 107.475L19.6349 107.981C19.283 113.169 14.9189 117.227 9.66067 117.137C4.23341 117.044 -0.0911462 112.567 0.00146273 107.14L0.0717833 104.578C2.14717 50.8419 40.4627 -4.12616e-05 104.894 -3.67838e-05C153.713 1.06415e-05 188.508 33.3413 188.508 73.9207C188.508 116.818 152.446 147.943 110.869 145.788L110.68 145.777L110.494 145.76C96.2337 144.473 87.0245 140.318 79.3847 133.569C70.7957 125.982 66.0492 114.76 66.0492 103.32C66.0492 97.022 67.237 90.7861 69.9759 85.0904C73.1941 78.3982 78.2476 72.6697 85.4745 68.7198C92.5868 64.8329 101.258 62.962 111.378 62.962C116.805 62.9623 121.205 67.3623 121.206 72.79C121.206 78.2183 116.806 82.6205 111.378 82.6208Z" fill="white"/>
<path d="M109.978 94.3743C117.748 94.3743 122.96 92.9327 126.452 91.0243C129.829 89.179 132.101 86.6289 133.662 83.3847C134.921 80.7664 135.647 77.527 135.648 73.6748C135.648 67.5157 133.061 61.7864 128.956 58.1594C124.907 54.5826 119.857 51.8142 109.3 50.832C78.1758 49.3068 52.5064 72.3363 52.5064 103.074C52.5065 131.076 76.6945 157.336 116.461 157.336C168.218 157.336 199.906 117.041 201.639 71.6834L201.698 69.5203L201.721 69.014C202.072 63.8257 206.437 59.7682 211.695 59.8583C217.122 59.9515 221.447 64.4278 221.354 69.855L221.284 72.4175C219.208 126.153 180.893 176.995 116.461 176.995C67.642 176.995 32.8477 143.654 32.8476 103.074C32.8476 60.1771 68.9091 29.0518 110.487 31.207L110.675 31.2182L110.861 31.2351C125.122 32.5221 134.331 36.6769 141.971 43.4258C150.56 51.0133 155.306 62.2346 155.306 73.6748C155.306 79.9731 154.118 86.209 151.38 91.9047C148.161 98.597 143.108 104.325 135.881 108.275C128.769 112.162 120.097 114.033 109.978 114.033C104.55 114.033 100.151 109.633 100.15 104.205C100.15 98.7768 104.55 94.3746 109.978 94.3743Z" fill="white"/>
<path d="M693.558 49.9806L693.558 103.205C693.558 111.033 699.904 117.38 707.733 117.38C713.101 117.38 718.009 114.346 720.41 109.544L737.212 75.9398C746.919 56.5261 774.483 56.3745 784.469 75.4847L784.702 75.9398L801.504 109.544C803.83 114.197 808.509 117.189 813.68 117.371L814.182 117.38C822.01 117.38 828.356 111.033 828.356 103.205L828.356 49.9806L828.369 49.485C828.626 44.3977 832.833 40.3521 837.985 40.3521C843.136 40.3521 847.343 44.3977 847.601 49.485L847.613 49.9806L847.613 103.205C847.613 121.669 832.645 136.637 814.182 136.637L813.589 136.631C801.159 136.412 789.854 129.305 784.28 118.156L767.478 84.5518L767.348 84.3036C764.553 79.1797 757.081 79.2625 754.436 84.5518L737.634 118.156C731.971 129.482 720.395 136.637 707.733 136.637C689.269 136.637 674.301 121.669 674.301 103.205L674.301 49.9806C674.301 44.6629 678.612 40.3521 683.929 40.3521C689.247 40.3521 693.558 44.6629 693.558 49.9806Z" fill="white"/>
<path d="M436.453 102.918V49.9615C436.453 44.6438 440.764 40.333 446.082 40.333C451.399 40.333 455.71 44.6438 455.71 49.9615V102.918C455.71 110.894 462.176 117.361 470.153 117.361H513.481C518.798 117.361 523.109 121.672 523.109 126.989C523.109 132.307 518.798 136.618 513.481 136.618H470.153C451.541 136.618 436.453 121.53 436.453 102.918Z" fill="white"/>
<path d="M592.451 116.881C607.678 116.881 620.036 114.499 628.247 109.76C635.696 105.459 640.112 99.0991 640.112 88.4773C640.112 77.8554 635.697 71.4953 628.247 67.195C620.036 62.4551 607.678 60.0733 592.451 60.0733C577.225 60.0733 564.867 62.4551 556.656 67.195C549.206 71.4953 544.79 77.8554 544.79 88.4773C544.79 99.0991 549.206 105.459 556.656 109.76C564.867 114.499 577.225 116.881 592.451 116.881ZM592.451 137.101C575.772 137.101 559.244 134.601 546.547 127.271C533.088 119.502 524.571 106.604 524.571 88.4773C524.571 70.3501 533.088 57.4526 546.547 49.6832C559.244 42.3536 575.772 39.8535 592.451 39.8535C609.131 39.8535 625.658 42.3536 638.356 49.6832C651.815 57.4526 660.332 70.3501 660.332 88.4773C660.332 106.604 651.815 119.502 638.356 127.271C625.658 134.601 609.131 137.101 592.451 137.101Z" fill="white"/>
<path d="M345.952 39.8535L403.723 39.8535C409.307 39.8535 413.833 44.3799 413.833 49.9634C413.833 55.3725 409.585 59.7895 404.243 60.0601L403.723 60.0733L345.952 60.0733L344.533 60.0799C329.958 60.224 318.112 62.6032 310.157 67.195C302.707 71.4953 298.291 77.8554 298.291 88.4773C298.291 99.0991 302.707 105.459 310.157 109.76C318.368 114.499 330.726 116.881 345.952 116.881L395.747 116.881C398.173 116.881 400.5 115.918 402.215 114.202C405.675 110.742 405.783 105.198 402.539 101.607L402.215 101.266C400.5 99.5506 398.173 98.5872 395.747 98.5871L365.209 98.5871C359.626 98.5871 355.099 94.0608 355.099 88.4773C355.099 82.8937 359.626 78.3674 365.209 78.3674L395.747 78.3674C403.535 78.3674 411.005 81.4617 416.512 86.9691L417.041 87.5116C427.978 99.0166 427.801 117.21 416.512 128.499C411.005 134.007 403.535 137.101 395.747 137.101L345.952 137.101C329.273 137.101 312.745 134.601 300.048 127.271C286.589 119.502 278.072 106.604 278.072 88.4773C278.072 70.3501 286.589 57.4526 300.048 49.6832C312.349 42.5826 328.244 40.0146 344.39 39.861L345.952 39.8535Z" fill="white"/>
</svg>
