<svg width="17" height="20" viewBox="0 0 17 20" fill="none" xmlns="http://www.w3.org/2000/svg">
<path d="M13.8967 10.636C13.8735 8.10926 16.0122 6.88002 16.11 6.82279C14.8988 5.09573 13.0214 4.85976 12.3617 4.84094C10.7849 4.67866 9.25544 5.76366 8.45222 5.76366C7.63298 5.76366 6.3961 4.85662 5.06303 4.88328C3.34759 4.90915 1.74277 5.88047 0.862606 7.38881C-0.953836 10.4643 0.400881 14.9838 2.14117 17.4697C3.01172 18.6872 4.02895 20.0466 5.36042 19.9988C6.66304 19.9463 7.14961 19.1866 8.72157 19.1866C10.2791 19.1866 10.736 19.9988 12.0939 19.9682C13.4919 19.9463 14.3721 18.7452 15.2122 17.5168C16.2182 16.1213 16.6222 14.747 16.6382 14.6765C16.6054 14.6655 13.9232 13.6644 13.8967 10.636Z" fill="#2F9FE0"/>
<path d="M11.3316 3.20561C12.0322 2.34874 12.5116 1.18299 12.3785 0C11.3645 0.0439017 10.0963 0.685964 9.36606 1.52402C8.71996 2.2625 8.1428 3.47294 8.2919 4.61124C9.43099 4.69434 10.6005 4.04914 11.3316 3.20561Z" fill="#2F9FE0"/>
</svg>
