<svg width="22" height="22" viewBox="0 0 22 22" fill="none" xmlns="http://www.w3.org/2000/svg">
<path d="M16 0C19.3137 0 22 2.68629 22 6V16C22 19.3137 19.3137 22 16 22H6C2.68629 22 9.66416e-08 19.3137 0 16V6C0 2.68629 2.68629 9.66384e-08 6 0H16ZM10.0195 11.7021L5.09961 17.2969H6.21191L10.5127 12.4043L13.9482 17.2969H17.7002L12.5986 10.0322L17.2891 4.69727H16.1777L12.1045 9.3291L8.85156 4.69727H5.09961L10.0195 11.7021ZM11.5195 9.99512L12.0186 10.6924L16.1787 16.5156H14.4707L11.0762 11.7637L10.5781 11.0664L6.6123 5.51562H8.31934L11.5195 9.99512Z" fill="white"/>
</svg>
